<svg id="verdes_pine" xmlns="http://www.w3.org/2000/svg" viewBox="0 0 1920 1920" width="2048" height="2048" fill="transparent" stroke="transparent" stroke-width="5">
  <path id="verdes_pine_g" d="M1375.87,1235.54l-3.36,61.4s-298.93-23.7-315.78-23.96c-16.85-.25-162.38-5.62-181.79-6.12-19.4-.51-42.89.76-50.55,2.8-7.66,2.05-73.03,31.66-85.03,37.02-12,5.37-45.7,22.48-71.48,21.96-25.79-.51-45.96-13.53-84.26-36l-18.56-11.66,13.6-5.3-.18-10.03c7.43,4.69,18.24,6.33,26.88,6.48,9.7.17,23.66-3.07,44.6-11.58,20.93-8.51,154.59-66.25,166.34-71.02,3.32-1.35,7.04-2.72,11.06-4,.88-.28,1.77-.55,2.67-.81,2.92-.86,5.98-1.66,9.13-2.34v29.45c0,3.74,3.69,10.3,18.33,10.77,6.98.22,152.51,4.6,163.24,4.6s143.18,10.54,152.72,10.71c9.53.17,11.74-2.38,16.51-2.21,4.76.17,34.85.35,42.51.86,7.66.51,15.14,1.36,19.4,2.72,4.26,1.36,17.96,4.17,25.28,4.17s37.45-2.56,44.42-2.56,9.2-4.98,9.2-7.53l45.1,2.18Z" stroke-width="2px" style="cursor: pointer; stroke: rgba(255, 255, 255, 0); fill: rgba(255, 255, 255, 0); transition-property: fill, stroke; transition-timing-function: cubic-bezier(0.4, 0, 0.2, 1); transition-duration: 200ms;"/>
  <path id="verdes_pine_p" d="M1382.84,1194.3l-6.63,41.23h-.34s-45.1-2.17-45.1-2.17c0,2.55-2.21,7.53-9.2,7.53s-37.1,2.56-44.42,2.56-21.02-2.81-25.28-4.17c-4.26-1.36-11.74-2.21-19.4-2.72-7.66-.51-37.75-.69-42.51-.86-4.77-.17-6.98,2.38-16.51,2.21-9.54-.17-142-10.71-152.72-10.71s-156.26-4.38-163.24-4.6c-14.64-.47-18.33-7.03-18.33-10.77v-29.45c3.61-.78,7.34-1.42,11.15-1.84,3.76-.41,7.58-.61,11.43-.54,17.03.34,112.69,6.38,124.6,6.55,11.92.17,20.77-7.83,20.94-18.55h11.91c.34,5.11,6.98,9.02,13.11,9.19,6.13.17,131.4,7.4,138.72,7.57,7.32.18,14.47-3.23,19.07-3.23s91.74,4.09,96.85,4.26c5.11.18,20.93,5.11,27.74,5.62,5.22.39,40.79,2.33,61.34,2.75,2.51.05,4.81.1,6.82.14Z" stroke-width="2px" style="cursor: pointer; stroke: rgba(255, 255, 255, 0); fill: rgba(255, 255, 255, 0); transition-property: fill, stroke; transition-timing-function: cubic-bezier(0.4, 0, 0.2, 1); transition-duration: 200ms;"/>
  <path id="verdes_pine_01" d="M1460.71,1104.57c-.41,10.96-1.43,25.26-1.77,28.2-.68,5.78.38,10.34-6.81,14.47-3.19,1.83-35.66,13.86-40.94,15.91-5.27,2.04-5.61,12.21-5.27,18.68.34,6.47-5.62,12.77-16.18,12.6-1.48-.02-3.87-.07-6.9-.13-2.01-.04-4.31-.09-6.82-.14-20.55-.42-56.12-2.36-61.34-2.75-6.81-.51-22.63-5.44-27.74-5.62-5.11-.17-92.26-4.26-96.85-4.26s-11.75,3.41-19.07,3.23c-7.32-.17-132.59-7.4-138.72-7.57-6.13-.17-12.77-4.08-13.11-9.19h-11.91c-.17,10.72-9.02,18.72-20.94,18.55-11.91-.17-107.57-6.21-124.6-6.55-3.85-.07-7.67.13-11.43.54-3.81.42-7.54,1.06-11.15,1.84-3.15.68-6.21,1.48-9.13,2.34-.9.26-1.79.53-2.67.81-4.02,1.28-7.74,2.65-11.06,4-11.75,4.77-145.41,62.51-166.34,71.02-20.94,8.51-34.9,11.75-44.6,11.58-8.64-.15-19.45-1.79-26.88-6.48-.91-.57-1.77-1.19-2.57-1.86-5.13-4.29-32.24-37.28-55.78-60.05-10.07-9.73-24-25.91-24-25.91l13.35-13.56c2.09-2.12,4.49-2.59,7.46-2.78l25.84,16.67c1.17.75,2.63.9,3.92.39l9.94-3.91.13-4.73-11.46-6.48c-4.03-2.28-5.67-4.69-5.59-9.09.01.66.14,1.34.41,1.98,1.25,2.98,3.5,5.52,6.45,7.11,1.18.63,48.65,29.42,54.1,31.81,5.45,2.38,12.94,5.61,26.55,1.36,13.62-4.26,93.37-26.73,101.88-29.62,8.51-2.89,10.68-7.61,18-10.16s28.59-8.14,33.7-10.01,5.23-4.36,5.06-11.34l49.41-14.02c.34,2.55,5.62,5.95,8.85,7.65,3.23,1.71,12.51,2.1,25.11,2.26,12.6.18,120.85,6.17,127.82,6,6.98-.17,10.04-6.13,10.72-10.89l11.92.17c-.17,4.94.68,12.76,10.55,13.1,9.88.34,129.75,6.94,141.32,7.45,11.58.51,12.99-2.98,22.52-2.81,9.53.17,82.59,3.92,94.17,4.6,11.57.68,22.29,5.95,33.53,6.63,11.23.69,67.19,2.47,74.34,1.62,7.14-.85,12.93-7.66,13.1-13.61.17-5.96-.68-16.17,2.22-17.36,2.89-1.2,35.68-10.21,39.26-12.42,2.38-1.48,7.71-3.16,10-9.27Z" stroke-width="2px" style="cursor: pointer; stroke: rgba(255, 255, 255, 0); fill: rgba(255, 255, 255, 0); transition-property: fill, stroke; transition-timing-function: cubic-bezier(0.4, 0, 0.2, 1); transition-duration: 200ms; stroke-width: 2px;"/>
  <path id="verdes_pine_02" d="M1463.11,1086.6c.12,3.52-1.39,15.3-2.39,17.95,0,.01-.01.01-.01.02-2.29,6.11-7.62,7.79-10,9.27-3.58,2.21-36.37,11.22-39.26,12.42-2.9,1.19-2.05,11.4-2.22,17.36-.17,5.95-5.96,12.76-13.1,13.61-7.15.85-63.11-.93-74.34-1.62-11.24-.68-21.96-5.95-33.53-6.63-11.58-.68-84.64-4.43-94.17-4.6-9.53-.17-10.94,3.32-22.52,2.81-11.57-.51-131.44-7.11-141.32-7.45-9.87-.34-10.72-8.16-10.55-13.1l-11.92-.17c-.68,4.76-3.74,10.72-10.72,10.89-6.97.17-115.22-5.82-127.82-6-12.6-.16-21.88-.55-25.11-2.26-3.23-1.7-8.51-5.1-8.85-7.65l-49.41,14.02c.17,6.98.05,9.47-5.06,11.34s-26.38,7.46-33.7,10.01-9.49,7.27-18,10.16c-8.51,2.89-88.26,25.36-101.88,29.62-13.61,4.25-21.1,1.02-26.55-1.36-5.45-2.39-52.92-31.18-54.1-31.81-2.95-1.59-5.2-4.13-6.45-7.11-.27-.64-.4-1.32-.41-1.98-.02-.18,0-.37.01-.55v-.05c.03-.4.11-.79.22-1.17.02-.07.04-.14.07-.21.01-.04.03-.09.05-.13.49-1.35,1.49-2.52,2.85-3.21.08-.04.16-.08.25-.12l6.06-2.73s.27-2.34.26-4.21c0-.38,3.91-1.6,4.6-4.85.02-.07,0-.15-.02-.24-.81-2.84-22.42-13.38-29.35-20.19-7.53-7.4.36-11.79,1.12-12.42.45-.38-1.73-12.45-.08-12.87,2.28-1.52,5.6-4.57,9.43-2.54,1.78.94,9.09,4.87,18.46,9.87l-.64,5.26c-6.99,1.23-4.13,19.21-4.55,21.42-.42,2.22-2.12,6.13,5.88,10.05,8,3.91,32.68,18.72,41.53,22.81,8.85,4.08,16.69,6.29,33.53,1.7,16.86-4.6,53.96-14.68,62.3-17.24,8.34-2.55,14.3-10.21,19.41-11.91,5.1-1.7,65.19-17.75,73.02-20.64,7.82-2.89,6.98-9.87,3.23-12.76l43.1-12.06c10.22,9.02,17.7,10.05,28.26,10.05s130.64,6.22,139.66,5.87c9.02-.33,14.81-5.35,15.32-11.86h3.23c-2.04,8.63,4.43,13.91,13.45,14.25,9.02.34,142.94,8.25,152.3,8.43,9.37.16,16.04-9.53,16.21-15.32h11.41c-1.83,10.59,2.93,17.69,15.02,17.87,12.08.17,154.51,7.84,164.55,7.33,2.83-.14,5.27-.33,7.39-.58h.01c4.7-.54,7.86-1.33,10.29-2.41.38-.16.74-.33,1.08-.51,3.57-1.87,5.79-6.64,5.27-17.19-.51-10.56,4.43-11.75,8-12.94,3.58-1.19,33.13-12.54,39.61-15.77.34-.17.68-.37.99-.57.23-.15.44-.31.65-.5-.06,6.23-.14,12.29-.05,15.1Z" stroke-width="2px" style="cursor: pointer; stroke: rgba(255, 255, 255, 0); fill: rgba(255, 255, 255, 0); transition-property: fill, stroke; transition-timing-function: cubic-bezier(0.4, 0, 0.2, 1); transition-duration: 200ms; stroke-width: 2px;"/>
  <path id="verdes_pine_03" d="M1468.22,1049.52c.15,4.34-.14,17.75-5.06,21.98-.21.19-.42.35-.65.5-.31.2-.65.4-.99.57-6.48,3.23-36.03,14.58-39.61,15.77-3.57,1.19-8.51,2.38-8,12.94.52,10.55-1.7,15.32-5.27,17.19-3.58,1.87-8.72,2.99-18.77,3.5-10.04.51-152.47-7.16-164.55-7.33-12.09-.18-16.85-7.28-15.02-17.87h-11.41c-.17,5.79-6.84,15.48-16.21,15.32-9.36-.18-143.28-8.09-152.3-8.43-9.02-.34-15.49-5.62-13.45-14.25h-3.23c-.51,6.51-6.3,11.53-15.32,11.86-9.02.35-129.11-5.87-139.66-5.87s-18.04-1.03-28.26-10.05l-43.1,12.06c3.75,2.89,4.59,9.87-3.23,12.76-7.83,2.89-67.92,18.94-73.02,20.64-5.11,1.7-11.07,9.36-19.41,11.91-8.34,2.56-45.44,12.64-62.3,17.24-16.84,4.59-24.68,2.38-33.53-1.7-8.85-4.09-33.53-18.9-41.53-22.81-8-3.92-6.3-7.83-5.88-10.05.42-2.21-2.44-20.19,4.55-21.42l.64-5.26.18-1.44s-37.84-19.5-40.34-21.45c-1.06-.83-7.35-3.97-7.92-5.49-2.04-5.49-.14-11.62,22.09-16.34l-.26-6.64,25.69,13.46c.13,1.55.12,4.06-1.3,4.29-8.81,1.4-5.88,1.53-6,13.53-.03,2.13-.76,2.87-1.19,5.11-.84,4.34.68,8.42,6.8,11.45,6.13,3.01,37.79,20.08,43.75,23.14,5.96,3.06,18.21,5.27,29.28,2.04,11.06-3.23,160-42.89,165.1-44.42,5.11-1.54,8-7.32,12.6-9.19,4.59-1.88,22.66-6.83,25.72-7.85,3.07-1.03,10.39-1.36,16.68-1.36s141.26,6.53,147.39,6.7,14.98-1.54,15.82-7.49l12.43.17c.68,5.61,6.3,8.85,13.79,9.19,7.49.34,144.33,7.45,150.13,7.27,5.78-.16,9.7-4.25,10.2-9.01l22.22.59c0,5.28,3.58,7.15,11.23,7.15s65.79,2.38,73.62,2.21c7.83-.17,10.59-2.87,11.92-7.83,1.86-7,3.77-18.24,4.46-23.09.44-3.04,4.94-5.28,14.98-5.45,10.05-.17,71.64,1.57,81.35,1.57s13.91-4.63,15.61-15.04c.89-5.4,1.4-14.46,2.11-25.5,6.71.15,14.79.73,17.7,1.13,7.49,1.02,12.13,4.72,12.38,10.85.15,3.6.26,9.7.26,9.7,3.34,1.74,6.31,4.72,6.12,7.92-.3,4.95-.2,16.13-.03,20.92Z" stroke-width="2px" style="cursor: pointer; stroke: rgba(255, 255, 255, 0); fill: rgba(255, 255, 255, 0); transition-property: fill, stroke; transition-timing-function: cubic-bezier(0.4, 0, 0.2, 1); transition-duration: 200ms; stroke-width: 2px;"/>
</svg>